curl
version=1
nRows=409
nColumns=3
inDegrees=yes
endheader
time	r_shoulder_elev	r_elbow_flex
4.4900	35.340747	100.308620
4.5000	35.390302	99.210378
4.5100	35.434427	98.108918
4.5200	35.472945	97.007539
4.5300	35.505731	95.909262
4.5400	35.532710	94.816817
4.5500	35.553851	93.732621
4.5600	35.569177	92.658767
4.5700	35.578751	91.597014
4.5800	35.582685	90.548785
4.5900	35.581133	89.515165
4.6000	35.574287	88.496899
4.6100	35.562378	87.494406
4.6200	35.545670	86.507780
4.6300	35.524460	85.536809
4.6400	35.499071	84.580985
4.6500	35.469848	83.639524
4.6600	35.437157	82.711385
4.6700	35.401380	81.795290
4.6800	35.362908	80.889745
4.6900	35.322142	79.993068
4.7000	35.279484	79.103411
4.7100	35.235334	78.218787
4.7200	35.190091	77.337094
4.7300	35.144140	76.456146
4.7400	35.097857	75.573695
4.7500	35.051600	74.687465
4.7600	35.005711	73.795173
4.7700	34.960507	72.894562
4.7800	34.916284	71.983423
4.7900	34.873309	71.059628
4.8000	34.831823	70.121149
4.8100	34.792041	69.166086
4.8200	34.754145	68.192690
4.8300	34.718289	67.199386
4.8400	34.684598	66.184790
4.8500	34.653167	65.147731
4.8600	34.624065	64.087264
4.8700	34.597329	63.002680
4.8800	34.572976	61.893520
4.8900	34.550993	60.759577
4.9000	34.531346	59.600900
4.9100	34.513982	58.417793
4.9200	34.498825	57.210809
4.9300	34.485785	55.980741
4.9400	34.474755	54.728616
4.9500	34.465616	53.455676
4.9600	34.458239	52.163363
4.9700	34.452484	50.853305
4.9800	34.448209	49.527291
4.9900	34.445265	48.187256
5.0000	34.443501	46.835256
5.0100	34.442766	45.473453
5.0200	34.442914	44.104089
5.0300	34.443798	42.729472
5.0400	34.445281	41.351954
5.0500	34.447231	39.973914
5.0600	34.449525	38.597746
5.0700	34.452050	37.225839
5.0800	34.454703	35.860569
5.0900	34.457396	34.504284
5.1000	34.460051	33.159292
5.1100	34.462604	31.827855
5.1200	34.465008	30.512177
5.1300	34.467226	29.214393
5.1400	34.469238	27.936565
5.1500	34.471037	26.680673
5.1600	34.472633	25.448606
5.1700	34.474045	24.242157
5.1800	34.475309	23.063014
5.1900	34.476471	21.912756
5.2000	34.477590	20.792845
5.2100	34.478732	19.704619
5.2200	34.479976	18.649289
5.2300	34.481404	17.627933
5.2400	34.483107	16.641489
5.2500	34.485177	15.690755
5.2600	34.487709	14.776383
5.2700	34.490797	13.898877
5.2800	34.494533	13.058593
5.2900	34.499004	12.255733
5.3000	34.504288	11.490347
5.3100	34.510457	10.762336
5.3200	34.517568	10.071445
5.3300	34.525664	9.417273
5.3400	34.534774	8.799270
5.3500	34.544907	8.216744
5.3600	34.556053	7.668863
5.3700	34.568181	7.154667
5.3800	34.581238	6.673070
5.3900	34.595147	6.222873
5.4000	34.609811	5.802777
5.4100	34.625106	5.411391
5.4200	34.640888	5.047252
5.4300	34.656993	4.708840
5.4400	34.673234	4.394593
5.4500	34.689408	4.102930
5.4600	34.705298	3.832269
5.4700	34.720670	3.581049
5.4800	34.735285	3.347752
5.4900	34.748894	3.130924
5.5000	34.761247	2.929203
5.5100	34.772093	2.741337
5.5200	34.781187	2.566211
5.5300	34.788292	2.402871
5.5400	34.793183	2.250542
5.5500	34.795651	2.108656
5.5600	34.795507	1.976869
5.5700	34.792586	1.855079
5.5800	34.786750	1.743446
5.5900	34.777889	1.642406
5.6000	34.765926	1.552684
5.6100	34.750823	1.475301
5.6200	34.732574	1.411581
5.6300	34.711215	1.363157
5.6400	34.686822	1.331965
5.6500	34.659510	1.320243
5.6600	34.629436	1.330521
5.6700	34.596799	1.365604
5.6800	34.561833	1.428563
5.6900	34.524813	1.522702
5.7000	34.486049	1.651543
5.7100	34.445884	1.818786
5.7200	34.404689	2.028280
5.7300	34.362862	2.283984
5.7400	34.320825	2.589922
5.7500	34.279013	2.950142
5.7600	34.237877	3.368663
5.7700	34.197874	3.849430
5.7800	34.159466	4.396258
5.7900	34.123109	5.012778
5.8000	34.089255	5.702389
5.8100	34.058339	6.468196
5.8200	34.030780	7.312965
5.8300	34.006974	8.239069
5.8400	33.987290	9.248445
5.8500	33.972061	10.342545
5.8600	33.961588	11.522304
5.8700	33.956130	12.788108
5.8800	33.955903	14.139763
5.8900	33.961074	15.576485
5.9000	33.971767	17.096881
5.9100	33.988049	18.698957
5.9200	34.009941	20.380114
5.9300	34.037405	22.137172
5.9400	34.070355	23.966388
5.9500	34.108649	25.863487
5.9600	34.152095	27.823707
5.9700	34.200447	29.841839
5.9800	34.253414	31.912282
5.9900	34.310655	34.029097
6.0000	34.371789	36.186074
6.0100	34.436392	38.376790
6.0200	34.504006	40.594682
6.0300	34.574141	42.833109
6.0400	34.646279	45.085432
6.0500	34.719881	47.345070
6.0600	34.794392	49.605582
6.0700	34.869246	51.860719
6.0800	34.943868	54.104496
6.0900	35.017689	56.331242
6.1000	35.090141	58.535657
6.1100	35.160669	60.712847
6.1200	35.228735	62.858369
6.1300	35.293825	64.968253
6.1400	35.355448	67.039029
6.1500	35.413151	69.067731
6.1600	35.466513	71.051910
6.1700	35.515158	72.989621
6.1800	35.558754	74.879417
6.1900	35.597018	76.720329
6.2000	35.629720	78.511834
6.2100	35.656684	80.253826
6.2200	35.677793	81.946573
6.2300	35.692988	83.590677
6.2400	35.702269	85.187015
6.2500	35.705698	86.736696
6.2600	35.703398	88.241001
6.2700	35.695549	89.701326
6.2800	35.682392	91.119129
6.2900	35.664221	92.495878
6.3000	35.641385	93.832991
6.3100	35.614280	95.131799
6.3200	35.583350	96.393491
6.3300	35.549075	97.619085
6.3400	35.511973	98.809390
6.3500	35.472588	99.964980
6.3600	35.431488	101.086181
6.3700	35.389254	102.173051
6.3800	35.346475	103.225380
6.3900	35.303743	104.242689
6.4000	35.261641	105.224242
6.4100	35.220738	106.169052
6.4200	35.181584	107.075907
6.4300	35.144698	107.943388
6.4400	35.110567	108.769895
6.4500	35.079638	109.553676
6.4600	35.052313	110.292860
6.4700	35.028945	110.985482
6.4800	35.009831	111.629524
6.4900	34.995215	112.222938
6.5000	34.985282	112.763683
6.5100	34.980156	113.249756
6.5200	34.979904	113.679217
6.5300	34.984531	114.050223
6.5400	34.993985	114.361049
6.5500	35.008155	114.610116
6.5600	35.026880	114.796017
6.5700	35.049943	114.917533
6.5800	35.077084	114.973659
6.5900	35.107996	114.963616
6.6000	35.142337	114.886874
6.6100	35.179727	114.743161
6.6200	35.219759	114.532478
6.6300	35.262001	114.255107
6.6400	35.306001	113.911620
6.6500	35.351293	113.502882
6.6600	35.397402	113.030058
6.6700	35.443847	112.494606
6.6800	35.490148	111.898278
6.6900	35.535826	111.243113
6.7000	35.580414	110.531427
6.7100	35.623453	109.765803
6.7200	35.664498	108.949070
6.7300	35.703125	108.084291
6.7400	35.738928	107.174738
6.7500	35.771525	106.223870
6.7600	35.800557	105.235304
6.7700	35.825698	104.212786
6.7800	35.846646	103.160161
6.7900	35.863135	102.081335
6.8000	35.874930	100.980246
6.8100	35.881834	99.860818
6.8200	35.883686	98.726931
6.8300	35.880362	97.582382
6.8400	35.871780	96.430845
6.8500	35.857897	95.275842
6.8600	35.838712	94.120702
6.8700	35.814267	92.968536
6.8800	35.784643	91.822208
6.8900	35.749963	90.684304
6.9000	35.710393	89.557115
6.9100	35.666134	88.442618
6.9200	35.617427	87.342459
6.9300	35.564548	86.257945
6.9400	35.507804	85.190040
6.9500	35.447533	84.139359
6.9600	35.384097	83.106176
6.9700	35.317881	82.090431
6.9800	35.249286	81.091741
6.9900	35.178727	80.109416
7.0000	35.106626	79.142483
7.0100	35.033410	78.189706
7.0200	34.959502	77.249615
7.0300	34.885322	76.320535
7.0400	34.811276	75.400618
7.0500	34.737757	74.487875
7.0600	34.665142	73.580209
7.0700	34.593782	72.675453
7.0800	34.524006	71.771399
7.0900	34.456116	70.865837
7.1000	34.390385	69.956585
7.1100	34.327057	69.041521
7.1200	34.266343	68.118616
7.1300	34.208424	67.185957
7.1400	34.153450	66.241779
7.1500	34.101540	65.284482
7.1600	34.052782	64.312654
7.1700	34.007238	63.325087
7.1800	33.964941	62.320785
7.1900	33.925901	61.298978
7.2000	33.890104	60.259123
7.2100	33.857516	59.200907
7.2200	33.828084	58.124240
7.2300	33.801742	57.029254
7.2400	33.778406	55.916286
7.2500	33.757984	54.785875
7.2600	33.740371	53.638739
7.2700	33.725458	52.475764
7.2800	33.713127	51.297983
7.2900	33.703256	50.106562
7.3000	33.695720	48.902779
7.3100	33.690391	47.688006
7.3200	33.687141	46.463697
7.3300	33.685839	45.231365
7.3400	33.686358	43.992574
7.3500	33.688568	42.748924
7.3600	33.692344	41.502037
7.3700	33.697562	40.253556
7.3800	33.704102	39.005130
7.3900	33.711848	37.758411
7.4000	33.720687	36.515052
7.4100	33.730511	35.276704
7.4200	33.741219	34.045012
7.4300	33.752713	32.821617
7.4400	33.764903	31.608156
7.4500	33.777702	30.406260
7.4600	33.791031	29.217556
7.4700	33.804815	28.043666
7.4800	33.818985	26.886202
7.4900	33.833478	25.746764
7.5000	33.848234	24.626936
7.5100	33.863199	23.528273
7.5200	33.878323	22.452300
7.5300	33.893562	21.400491
7.5400	33.908872	20.374264
7.5500	33.924217	19.374963
7.5600	33.939561	18.403842
7.5700	33.954872	17.462055
7.5800	33.970122	16.550631
7.5900	33.985285	15.670468
7.6000	34.000337	14.822312
7.6100	34.015258	14.006745
7.6200	34.030026	13.224176
7.6300	34.044625	12.474832
7.6400	34.059038	11.758750
7.6500	34.073249	11.075774
7.6600	34.087243	10.425559
7.6700	34.101004	9.807575
7.6800	34.114516	9.221108
7.6900	34.127763	8.665279
7.7000	34.140726	8.139055
7.7100	34.153385	7.641264
7.7200	34.165717	7.170617
7.7300	34.177696	6.725732
7.7400	34.189293	6.305154
7.7500	34.200477	5.907385
7.7600	34.211212	5.530908
7.7700	34.221460	5.174220
7.7800	34.231179	4.835853
7.7900	34.240325	4.514410
7.8000	34.248850	4.208591
7.8100	34.256709	3.917218
7.8200	34.263851	3.639266
7.8300	34.270229	3.373886
7.8400	34.275796	3.120433
7.8500	34.280506	2.878484
7.8600	34.284321	2.647860
7.8700	34.287204	2.428646
7.8800	34.289125	2.221205
7.8900	34.290065	2.026191
7.9000	34.290011	1.844562
7.9100	34.288962	1.677580
7.9200	34.286928	1.526819
7.9300	34.283933	1.394165
7.9400	34.280015	1.281807
7.9500	34.275227	1.192232
7.9600	34.269635	1.128209
7.9700	34.263326	1.092771
7.9800	34.256400	1.089198
7.9900	34.248972	1.120984
8.0000	34.241176	1.191809
8.0100	34.233159	1.305501
8.0200	34.225081	1.466003
8.0300	34.217117	1.677322
8.0400	34.209452	1.943485
8.0500	34.202280	2.268491
8.0600	34.195803	2.656257
8.0700	34.190227	3.110563
8.0800	34.185761	3.635001
8.0900	34.182615	4.232915
8.1000	34.180994	4.907351
8.1100	34.181100	5.660999
8.1200	34.183125	6.496149
8.1300	34.187250	7.414638
8.1400	34.193642	8.417812
8.1500	34.202454	9.506485
8.1600	34.213815	10.680910
8.1700	34.227836	11.940755
8.1800	34.244603	13.285083
8.1900	34.264174	14.712350
8.2000	34.286580	16.220401
8.2100	34.311823	17.806481
8.2200	34.339870	19.467255
8.2300	34.370661	21.198839
8.2400	34.404096	22.996835
8.2500	34.440047	24.856379
8.2600	34.478350	26.772194
8.2700	34.518805	28.738652
8.2800	34.561185	30.749836
8.2900	34.605225	32.799614
8.3000	34.650636	34.881709
8.3100	34.697098	36.989771
8.3200	34.744266	39.117457
8.3300	34.791772	41.258492
8.3400	34.839231	43.406751
8.3500	34.886239	45.556311
8.3600	34.932380	47.701520
8.3700	34.977233	49.837048
8.3800	35.020367	51.957928
8.3900	35.061356	54.059603
8.4000	35.099774	56.137947
8.4100	35.135206	58.189294
8.4200	35.167249	60.210447
8.4300	35.195517	62.198686
8.4400	35.219648	64.151766
8.4500	35.239305	66.067906
8.4600	35.254181	67.945776
8.4700	35.264005	69.784475
8.4800	35.268546	71.583507
8.4900	35.267614	73.342741
8.5000	35.261067	75.062387
8.5100	35.248813	76.742942
8.5200	35.230811	78.385156
8.5300	35.207076	79.989978
8.5400	35.177682	81.558509
8.5500	35.142756	83.091948
8.5600	35.102490	84.591540
8.5700	35.057129	86.058524
